<svg fill="none" height="16" viewBox="0 0 16 16" width="16" xmlns="http://www.w3.org/2000/svg" xmlns:xlink="http://www.w3.org/1999/xlink"><clipPath id="a"><path d="m0 0h16v16h-16z"/></clipPath><g style="clip-path:url(#a);stroke:#fff;stroke-opacity:.7;stroke-width:2;stroke-linecap:round;stroke-linejoin:round"><path d="m7.2729 5.81836h6.5455c.8 0 1.4545.65454 1.4545 1.45454v6.5455c0 .8-.6545 1.4545-1.4545 1.4545h-6.5455c-.8 0-1.45454-.6545-1.45454-1.4545v-6.5455c0-.8.65454-1.45454 1.45454-1.45454z"/><path d="m2.90936 10.1821h-.72728c-.8 0-1.454541-.65456-1.454541-1.45456v-6.54546c0-.8.654541-1.454541 1.454541-1.454541h6.54546c.8 0 1.45456.654541 1.45456 1.454541v.72728"/></g></svg>