<svg fill="none" height="17" viewBox="0 0 17 17" width="17" xmlns="http://www.w3.org/2000/svg"><g fill="#fff" fill-opacity=".7"><path d="m5.94297 16.4274c-1.39258 0-2.79355-.5285-3.85896-1.5939-2.1224294-2.1308-2.1224294-5.58712 0-7.70954.24328-.24329.64595-.24329.88924 0 .24328.24328.24328.64595 0 .88924-1.63587 1.63586-1.63587 4.2952 0 5.931 1.63586 1.6359 4.29519 1.6359 5.93105 0 .78857-.7885 1.2248-1.8455 1.2248-2.9697 0-1.11572-.43623-2.17274-1.2248-2.96969-.24328-.24329-.24328-.64596 0-.88924.24328-.24329.64596-.24329.88924 0 1.03186 1.03185 1.59396 2.39926 1.59396 3.85893 0 1.4597-.5705 2.8271-1.59396 3.859-1.05702 1.0654-2.4496 1.5939-3.85057 1.5939z"/><path d="m14.3992 10.2702c-.1593 0-.3187-.0587-.4446-.1846-.2433-.24326-.2433-.64594 0-.88922 1.7198-1.71975 1.7198-4.5133 0-6.22467-1.7197-1.71975-4.51328-1.71975-6.22464 0-.83052.83052-1.29192 1.93787-1.29192 3.11234 0 1.17446.4614 2.28182 1.29192 3.11233.24328.24328.24328.64596 0 .88922-.24329.2433-.64596.2433-.88924 0-1.06541-1.06539-1.66103-2.49153-1.66103-4.00155 0-1.51003.58723-2.93617 1.66103-4.00158 2.20632-2.206315 5.79678-2.206315 8.01158 0 2.2063 2.20632 2.2063 5.80522 0 8.01153-.1259.1175-.2937.1762-.4531.1762z"/></g></svg>