<svg fill="none" height="72" viewBox="0 0 75 72" width="75" xmlns="http://www.w3.org/2000/svg" xmlns:xlink="http://www.w3.org/1999/xlink"><linearGradient id="a" gradientUnits="userSpaceOnUse" x1="-36.4787" x2="-17.4957" y1="0" y2="83.5152"><stop offset=".510417" stop-color="#ff3d6c"/><stop offset="1" stop-color="#ff3d6c" stop-opacity="0"/></linearGradient><path d="m74.9117 22.6148c-.3534-7.0671-2.4735-12.72081-6.3605-16.25438-4.5936-4.24028-11.3074-6.36042-20.4947-6.36042h-48.0565v19.788h40.9894c5.6537 0 8.4806 2.8268 8.4806 8.4806v2.8268c0 5.6537-2.8269 8.4806-8.4806 8.4806h-26.8551v19.788h29.682c5.6537 0 8.4805 2.8268 8.4805 8.4805v3.1802l10.9541-23.3215c-.7067-.3534-1.7668-.7067-2.4735-.7067 1.4134-.3534 2.4735-1.0601 3.5336-1.7668z" fill="url(#a)"/></svg>