<svg fill="none" height="22" viewBox="0 0 20 22" width="20" xmlns="http://www.w3.org/2000/svg"><g stroke="#fff" stroke-linecap="round" stroke-linejoin="round" stroke-width="1.5"><path d="m19.0802 7.58003v6.83997c0 1.12-.6 2.16-1.57 2.73l-5.94 3.43c-.97.56-2.17004.56-3.15004 0l-5.94-3.43c-.97-.56-1.570004-1.6-1.570004-2.73v-6.83997c0-1.12.600004-2.16004 1.570004-2.73004l5.94-3.42999c.97-.56 2.17004-.56 3.15004 0l5.94 3.42999c.97.57 1.57 1.60004 1.57 2.73004z"/><path d="m9.99992 9.99982c1.28678 0 2.32998-1.0432 2.32998-2.33002s-1.0432-2.32996-2.32998-2.32996c-1.28682 0-2.33 1.04314-2.33 2.32996s1.04318 2.33002 2.33 2.33002z"/><path d="m14 15.6599c0-1.8-1.79-3.26-4-3.26s-4 1.46-4 3.26"/></g></svg>