<svg fill="none" height="96" viewBox="0 0 96 96" width="96" xmlns="http://www.w3.org/2000/svg" xmlns:xlink="http://www.w3.org/1999/xlink"><linearGradient id="a" gradientUnits="userSpaceOnUse" x1="48" x2="48" y1="0" y2="96"><stop offset="0" stop-color="#53dee9"/><stop offset="1" stop-color="#1fc7d4"/></linearGradient><circle cx="48" cy="48" fill="url(#a)" r="48"/><path clip-rule="evenodd" d="m47.8581 79.8749c-9.3417-.0071-16.8666-2.2487-22.1243-6.275-5.3208-4.0747-8.1435-9.857-8.1435-16.3998 0-6.3044 2.8165-10.8504 6.0033-13.9232 2.4975-2.4081 5.2535-3.9504 7.1725-4.8375-.4339-1.3318-.9754-3.0754-1.4598-4.8762-.6481-2.4098-1.284-5.2371-1.284-7.3089 0-2.4523.5347-4.9151 1.9763-6.8288 1.5231-2.0218 3.816-3.1049 6.5745-3.1049 2.1558 0 3.9862.7996 5.4191 2.1792 1.3697 1.3186 2.2813 3.0699 2.9107 4.8954 1.106 3.2077 1.5367 7.2378 1.6575 11.2596h2.6422c.1208-4.0218.5514-8.0519 1.6575-11.2596.6294-1.8255 1.541-3.5768 2.9107-4.8954 1.4329-1.3796 3.2632-2.1792 5.4191-2.1792 2.7585 0 5.0514 1.0831 6.5745 3.1049 1.4416 1.9137 1.9763 4.3765 1.9763 6.8288 0 2.0718-.6359 4.8991-1.2841 7.3089-.4844 1.8008-1.0258 3.5444-1.4598 4.8762 1.9191.8871 4.6751 2.4294 7.1725 4.8375 3.1869 3.0728 6.0033 7.6188 6.0033 13.9232 0 6.5428-2.8226 12.3251-8.1434 16.3998-5.2577 4.0263-12.7826 6.2679-22.1243 6.275z" fill="#633001" fill-rule="evenodd"/><path d="m36.573 18.6528c-4.0403 0-5.9001 3.0449-5.9001 7.256 0 3.3471 2.161 10.0506 3.0476 12.6602.1994.5869-.114 1.23-.6854 1.4576-3.2381 1.2898-12.7941 6.0124-12.7941 16.828 0 11.3931 9.711 19.9834 27.619 19.997h.0214.0214c17.9079-.0136 27.619-8.6039 27.619-19.997 0-10.8156-9.556-15.5382-12.7941-16.828-.5715-.2276-.8848-.8707-.6854-1.4576.8866-2.6096 3.0475-9.3131 3.0475-12.6602 0-4.2111-1.8598-7.256-5.9-7.256-5.8158 0-7.2655 8.3223-7.3689 17.2542-.0069.5963-.4841 1.0801-1.0744 1.0801h-5.7302c-.5904 0-1.0675-.4838-1.0744-1.0801-.1034-8.9319-1.5532-17.2542-7.3689-17.2542z" fill="#d1884f"/><path d="m47.9028 73.202c-13.1579 0-27.6391-7.1152-27.6618-16.3258v.0431c0 11.4023 9.7265 19.9971 27.6618 19.9971 17.9352 0 27.6617-8.5948 27.6617-19.9971 0-.0143 0-.0287 0-.0431-.0227 9.2106-14.5038 16.3258-27.6617 16.3258z" fill="#fedc90"/><g fill="#633001"><path d="m40.5919 54.0472c0 3.1097-1.4548 4.7293-3.2493 4.7293-1.7946 0-3.2493-1.6196-3.2493-4.7293s1.4547-4.7293 3.2493-4.7293c1.7945 0 3.2493 1.6196 3.2493 4.7293z"/><path d="m61.7122 54.0472c0 3.1097-1.4547 4.7293-3.2493 4.7293-1.7945 0-3.2493-1.6196-3.2493-4.7293s1.4548-4.7293 3.2493-4.7293c1.7946 0 3.2493 1.6196 3.2493 4.7293z"/></g></svg>