<svg fill="none" height="16" viewBox="0 0 20 16" width="20" xmlns="http://www.w3.org/2000/svg" xmlns:xlink="http://www.w3.org/1999/xlink"><clipPath id="a"><path d="m0 0h19.2v16h-19.2z"/></clipPath><g clip-path="url(#a)"><path d="m9.60234 7.2c.47996 0 .79996.32.79996.8v7.2c0 .48-.32.8-.79996.8-.48 0-.8-.32-.8-.8v-7.2c0-.48.32-.8.8-.8z" fill="#a3ff12"/><path d="m16.319 13.92c-.32 0-.56-.16-.72-.4-.24-.4-.08-.88.32-1.12.72-.4 1.28-1.12 1.52-1.92.24-.79997.16-1.67997-.24-2.39997-.56-1.04-1.6-1.68-2.8-1.68h-1.04c-.4 0-.72-.24-.8-.56-.8-2.96-3.84001-4.8-6.80001-4-1.44.32-2.64 1.2-3.36 2.48-.8 1.36-.96 2.8-.64 4.32.24.88.64 1.67997 1.2 2.31997.32.32.24.8-.08 1.12s-.8.24-1.12-.08c-.72-.88-1.279999-1.84-1.599999-2.95997-.48-1.84-.2399995-3.76.800001-5.44 1.039998-1.68 2.559998-2.800002 4.399998-3.280002 3.68-1.04 7.44001.960002 8.64001 4.480002h.4c1.76 0 3.36.96 4.24 2.48.64 1.12.72 2.4.4 3.67997-.4 1.2-1.2 2.24-2.32 2.88-.16 0-.24.08-.4.08z" fill="#fff"/><path d="m6.40156 11.2c.24 0 .4.08.56.24l2.64 2.64 2.64004-2.64c.32-.32.8-.32 1.12 0s.32.8 0 1.12l-3.2 3.2c-.32004.32-.80004.32-1.12004 0l-3.2-3.2c-.32-.32-.32-.8 0-1.12.16-.16.32-.24.56-.24z" fill="#a3ff12"/></g></svg>