<svg fill="none" height="16" viewBox="0 0 16 16" width="16" xmlns="http://www.w3.org/2000/svg" xmlns:xlink="http://www.w3.org/1999/xlink"><clipPath id="a"><path d="m0 0h15.1504v16h-15.1504z"/></clipPath><g clip-path="url(#a)"><path d="m4.95575 16c-1.27434 0-2.54867-.4956-3.53982-1.4159-1.911506-1.9115-1.911506-5.09737 0-7.00888l6.51327-6.51327c.70797-.707968 1.55752-1.06195 2.5487-1.06195.9203 0 1.8407.353982 2.4779 1.06195 1.4159 1.41593 1.4159 3.61062 0 5.02655l-6.51332 6.5133c-.84956.8495-2.19469.8495-2.97345 0-.42478-.4248-.63717-.9912-.63717-1.5576 0-.5663.21239-1.1327.63717-1.48668l6.01769-6.0177c.28319-.28318.70798-.28318.99118 0 .2832.28319.2832.70797 0 .99115l-6.01772 6.01773c-.1416.1416-.21239.2832-.21239.4955 0 .2124.07079.354.21239.4956.28318.2832.70796.2832.99115 0l6.51327-6.51325c.8496-.84956.8496-2.19469 0-2.97345-.7788-.77876-2.19469-.77876-2.97345 0l-6.51328 6.51327c-1.41592 1.41593-1.41592 3.61063 0 5.02653 1.41593 1.416 3.61062 1.416 5.02655 0l6.51328-6.51325c.2832-.28319.708-.28319.9911 0 .2832.28318.2832.70796 0 .99115l-6.51323 6.5133c-.99115.9203-2.26548 1.4159-3.53982 1.4159z" fill="#fff" fill-opacity=".3"/></g></svg>