<svg fill="none" height="20" viewBox="0 0 30 20" width="30" xmlns="http://www.w3.org/2000/svg" xmlns:xlink="http://www.w3.org/1999/xlink"><clipPath id="a"><path d="m0 0h29.1v20h-29.1z"/></clipPath><g clip-path="url(#a)" fill="#fff"><path d="m26.5 0h-23.8c-1.5 0-2.7 1.2-2.7 2.7v14.6c0 1.5 1.2 2.7 2.7 2.7h23.8c1.5 0 2.7-1.2 2.7-2.7v-14.6c-.1-1.5-1.3-2.7-2.7-2.7zm1 17.3c0 .6-.5 1-1 1h-23.8c-.6 0-1-.5-1-1v-14.6c0-.6.5-1 1-1h23.8c.6 0 1 .5 1 1z"/><path d="m4.7 13.9h6.7c.4 0 .7-.3.7-.7s-.3-.7-.7-.7h-6.7c-.4 0-.7.3-.7.7.1.4.4.7.7.7z"/><path d="m4.7 7.4h6.7c.4 0 .7-.3.7-.7s-.3-.7-.7-.7h-6.7c-.4 0-.7.3-.7.7.1.4.4.7.7.7z"/><path d="m4.69961 10h4.7c.4 0 .69999-.29999.69999-.69999s-.29999-.7-.69999-.7h-4.7c-.3.1-.6.4-.6.7 0 .4.3.69999.6.69999z"/><path d="m25.4992 9.00001-1.9-3.4c-.1-.3-.4-.4-.8-.4h-4.9c-.4 0-.7.2-.9.5l-1.8 3.3v4.89999c0 .5.4.9 1 .9.5 0 1-.4 1-.9v-.6h6.3v.6c0 .5.4.9 1 .9.5 0 1-.4 1-.9zm-7.8-.7.8-1.4h.1 3.8v.1l.8 1.4h-.2-.1-5.2zm6 3.39999h-.1-6.5v-.1-1.6h.1 6.5v.1z"/></g></svg>