<svg fill="none" height="20" viewBox="0 0 18 20" width="18" xmlns="http://www.w3.org/2000/svg"><g fill="#a3ff12"><path d="m8.71942 12.013c-1.98047 0-3.59833-1.6085-3.59833-3.59829 0-1.98977 1.61786-3.58903 3.59833-3.58903 1.98048 0 3.59828 1.60856 3.59828 3.59833 0 1.98979-1.6178 3.58899-3.59828 3.58899zm0-5.79262c-1.20874 0-2.20363.98559-2.20363 2.20363s.98559 2.20359 2.20363 2.20359 2.20358-.98555 2.20358-2.20359-.99484-2.20363-2.20358-2.20363z"/><path d="m8.7184 20c-1.3761 0-2.7615-.5207-3.84007-1.5528-2.74291-2.6406-5.774061-6.8526-4.630407-11.86422 1.032077-4.54672 5.002327-6.58298 8.470477-6.58298h.0093c3.4682 0 7.4384 2.03626 8.4705 6.59228 1.1343 5.01162-1.8968 9.21432-4.6397 11.85492-1.0786 1.0321-2.464 1.5528-3.8401 1.5528zm0-18.6053c-2.70572 0-6.18317 1.44119-7.10367 5.49512-1.004185 4.37938 1.74802 8.15438 4.23989 10.54398 1.60855 1.5527 4.12831 1.5527 5.73688 0 2.4826-2.3896 5.2348-6.1646 4.2492-10.54398-.9298-4.05393-4.4166-5.49512-7.1223-5.49512z"/></g></svg>