<svg fill="none" height="20" viewBox="0 0 30 20" width="30" xmlns="http://www.w3.org/2000/svg" xmlns:xlink="http://www.w3.org/1999/xlink"><clipPath id="a"><path d="m0 0h29.1538v20h-29.1538z"/></clipPath><g clip-path="url(#a)" fill="#fff"><path d="m26.4615 0h-23.76919c-1.46154 0-2.69231 1.23077-2.69231 2.69231v14.61539c0 1.4615 1.23077 2.6923 2.69231 2.6923h23.76919c1.4616 0 2.6923-1.2308 2.6923-2.6923v-14.61539c0-1.46154-1.2307-2.69231-2.6923-2.69231zm1 17.3077c0 .5385-.4615 1-1 1h-23.76919c-.53846 0-1-.4615-1-1v-14.61539c0-.53846.46154-1 1-1h23.76919c.5385 0 1 .46154 1 1z"/><path d="m24.1541 4.76923h-7.6923c-.3846 0-.6923.30769-.6923.6923 0 .38462.3077.69231.6923.69231h7.6923c.3847 0 .6924-.30769.6924-.69231 0-.38461-.3077-.6923-.6924-.6923z"/><path d="m24.1541 13.8462h-7.6923c-.3846 0-.6923.3077-.6923.6923s.3077.6923.6923.6923h7.6923c.3847 0 .6924-.3077.6924-.6923s-.3077-.6923-.6924-.6923z"/><path d="m24.1541 8.69232h-4.6923c-.3846 0-.6923.30769-.6923.69231 0 .38461.3077.69227.6923.69227h4.6923c.3847 0 .6924-.30766.6924-.69227 0-.38462-.3077-.69231-.6924-.69231z"/><path d="m24.1541 11.3077h-4.6923c-.3846 0-.6923.3077-.6923.6923s.3077.6923.6923.6923h4.6923c.3847 0 .6924-.3077.6924-.6923 0-.4616-.3077-.6923-.6924-.6923z"/><path d="m8.53906 10.3077c1.61534 0 3.00004-1.30771 3.00004-3.00002 0-1.61539-1.3077-3-3.00004-3-1.61538 0-3 1.30769-3 3 0 1.61538 1.38462 3.00002 3 3.00002zm0-4.53848c.84616 0 1.53844.6923 1.53844 1.53846 0 .84615-.69228 1.53846-1.53844 1.53846-.84615 0-1.53846-.69231-1.53846-1.53846 0-.84616.69231-1.53846 1.53846-1.53846z"/><path d="m9.69171 10.8462h-2.3077c-1.61538 0-2.92307 1.3077-2.92307 2.923v1.2308c0 .3846.30769.6923.6923.6923.38462 0 .69231-.3077.69231-.6923v-1.2308c0-.7692.69231-1.4615 1.46154-1.4615h2.30769c.76922 0 1.46152.6923 1.46152 1.4615v1.2308c0 .3846.3077.6923.6923.6923s.6923-.3077.6923-.6923v-1.2308c.1539-1.6153-1.1538-2.923-2.76919-2.923z"/></g></svg>