<svg fill="none" height="26" viewBox="0 0 23 26" width="23" xmlns="http://www.w3.org/2000/svg" xmlns:xlink="http://www.w3.org/1999/xlink"><clipPath id="a"><path d="m0 0h22.3v26h-22.3z"/></clipPath><g clip-path="url(#a)" fill="#fff"><path d="m17.0996 18.7h-12.29999c-.4 0-.7.3-.7.7s.3.7.7.7h12.29999c.4 0 .7-.3.7-.7.1-.4-.2-.7-.7-.7z"/><path d="m14.6996 21.8h-7.39999c-.4 0-.7.3-.7.7s.3.7.7.7h7.39999c.4 0 .7-.3.7-.7s-.3-.7-.7-.7z"/><path d="m11.2008 3.20001c-3.80002 0-6.90002 3.1-6.90002 6.89999 0 3.8 3.1 6.9 6.90002 6.9 3.8 0 6.9-3.1 6.9-6.9 0-3.79999-3.2-6.89999-6.9-6.89999zm-5.40002 6.1c.3-1.8 1.4-3.4 3-4.1-.4 1.1-.7 2.6-.8 4.1zm3.7 0c.1-2.8 1.10002-4.7 1.70002-4.7s1.5 1.8 1.7 4.7zm-.6 5.59999c-1.6-.8-2.8-2.3-3-4.1h2.1c.1 1.6.4 3.1.9 4.1zm3.90002-4.1c-.1 2.8-1.1 4.7-1.7 4.7s-1.50002-1.8-1.70002-4.7zm3.7 0c-.3 1.8-1.4 3.4-3 4.1.5-1.1.8-2.6.9-4.1zm0-1.49999h-2.1c-.1-1.6-.4-3-.9-4.1 1.6.8 2.7 2.3 3 4.1z"/><path d="m19.7 0h-1.2-1.2-10.2-4.7-.1c-1.3.1-2.3 1.2-2.3 2.6v20.8c0 1.4 1.2 2.6 2.6 2.6h17.2c1.4 0 2.6-1.2 2.6-2.6v-20.8c-.1-1.4-1.2-2.6-2.7-2.6zm1.1 2.6v20.8c0 .6-.5 1.1-1.1 1.1h-17.1c-.6 0-1.1-.5-1.1-1.1v-20.8c0-.6.5-1.1 1.1-1.1h17.2c.5 0 1 .5 1 1.1z"/></g></svg>