<svg fill="none" height="253" viewBox="0 0 470 253" width="470" xmlns="http://www.w3.org/2000/svg" xmlns:xlink="http://www.w3.org/1999/xlink"><filter id="a" color-interpolation-filters="sRGB" filterUnits="userSpaceOnUse" height="59.4" width="33" x="-5" y="-5"><feFlood flood-opacity="0" result="BackgroundImageFix"/><feGaussianBlur in="BackgroundImage" stdDeviation="2.5"/><feComposite in2="SourceAlpha" operator="in" result="effect1_backgroundBlur_6_2969"/><feBlend in="SourceGraphic" in2="effect1_backgroundBlur_6_2969" mode="normal" result="shape"/></filter><filter id="b" color-interpolation-filters="sRGB" filterUnits="userSpaceOnUse" height="263" width="480" x="-5" y="-5"><feFlood flood-opacity="0" result="BackgroundImageFix"/><feGaussianBlur in="BackgroundImage" stdDeviation="2.5"/><feComposite in2="SourceAlpha" operator="in" result="effect1_backgroundBlur_6_2969"/><feBlend in="SourceGraphic" in2="effect1_backgroundBlur_6_2969" mode="normal" result="shape"/></filter><linearGradient id="c" gradientUnits="userSpaceOnUse" x1="48" x2="469.382" y1="251" y2="251"><stop offset="0" stop-color="#fff" stop-opacity="0"/><stop offset="1" stop-color="#fff"/></linearGradient><clipPath id="d"><path d="m48 249h421.4v4h-421.4z"/></clipPath><g filter="url(#a)"><path d="m0 0v49.4l23-49.4z" fill="#a3ff12" fill-opacity=".3"/></g><g filter="url(#b)"><path d="m470 0v253h-470v-182.3l33-70.7z" fill="#1e1f35" fill-opacity=".8"/></g><g clip-path="url(#d)"><path d="m55.4 249-1.9 4h-5.5l1.9-4zm3.5 0-1.9 4h5.5l1.9-4zm9 0-1.9 4h5.5l1.9-4zm9 0-1.9 4h5.5l1.9-4zm9 0-1.9 4h5.5l1.9-4zm9 0-1.9 4h5.5l1.9-4zm9 0-1.9 4h5.5l1.9-4zm9 0-1.9 4h5.5l1.9-4zm9 0-1.9 4h5.5l1.9-4zm9 0-1.9 4h5.5l1.9-4zm9 0-1.9 4h5.5l1.9-4zm9 0-1.9 4h5.5l1.9-4zm9 0-1.9 4h5.5l1.9-4zm9 0-1.9 4h5.5l1.9-4zm9 0-1.9 4h5.5l1.9-4zm9 0-1.9 4h5.5l1.9-4zm9 0-1.9 4h5.5l1.9-4zm9 0-1.9 4h5.5l1.9-4zm9 0-1.9 4h5.5l1.9-4zm9 0-1.9 4h5.5l1.9-4zm9 0-1.9 4h5.5l1.9-4zm9 0-1.9 4h5.5l1.9-4zm9 0-1.9 4h5.5l1.9-4zm9 0-1.9 4h5.5l1.9-4zm9 0-1.9 4h5.5l1.9-4zm9 0-1.9 4h5.5l1.9-4zm9 0-1.9 4h5.5l1.9-4zm9 0-1.9 4h5.5l1.9-4zm9 0-1.9 4h5.5l1.9-4zm9 0-1.9 4h5.5l1.9-4zm9 0-1.9 4h5.5l1.9-4zm9 0-1.9 4h5.5l1.9-4zm9 0-1.9 4h5.5l1.9-4zm9 0-1.9 4h5.5l1.9-4zm9 0-1.9 4h5.5l1.9-4zm9 0-1.9 4h5.5l1.9-4zm9 0-1.9 4h5.5l1.9-4zm9 0-1.9 4h5.5l1.9-4zm9 0-1.9 4h5.5l1.9-4zm9 0-1.9 4h5.5l1.9-4zm9 0-1.9 4h5.5l1.9-4zm9 0-1.9 4h5.5l1.9-4zm9 0-1.9 4h5.5l1.9-4zm9 0-1.9 4h5.5l1.9-4zm9 0-1.9 4h5.5l1.9-4zm9 0-1.9 4h5.5l1.9-4zm9 0-1.9 4h5.5l1.9-4z" fill="url(#c)" fill-opacity=".1"/></g></svg>