<svg fill="none" height="290" viewBox="0 0 470 290" width="470" xmlns="http://www.w3.org/2000/svg" xmlns:xlink="http://www.w3.org/1999/xlink"><filter id="a" color-interpolation-filters="sRGB" filterUnits="userSpaceOnUse" height="59.4" width="33" x="442" y="-5"><feFlood flood-opacity="0" result="BackgroundImageFix"/><feGaussianBlur in="BackgroundImage" stdDeviation="2.5"/><feComposite in2="SourceAlpha" operator="in" result="effect1_backgroundBlur_6_2981"/><feBlend in="SourceGraphic" in2="effect1_backgroundBlur_6_2981" mode="normal" result="shape"/></filter><filter id="b" color-interpolation-filters="sRGB" filterUnits="userSpaceOnUse" height="300" width="480" x="-5" y="-5"><feFlood flood-opacity="0" result="BackgroundImageFix"/><feGaussianBlur in="BackgroundImage" stdDeviation="2.5"/><feComposite in2="SourceAlpha" operator="in" result="effect1_backgroundBlur_6_2981"/><feBlend in="SourceGraphic" in2="effect1_backgroundBlur_6_2981" mode="normal" result="shape"/></filter><linearGradient id="c" gradientUnits="userSpaceOnUse" x1="0" x2="421.382" y1="288" y2="288"><stop offset="0" stop-color="#fff"/><stop offset="1" stop-color="#fff" stop-opacity="0"/></linearGradient><clipPath id="d"><path d="m0 286h421.4v4h-421.4z"/></clipPath><g filter="url(#a)"><path d="m470 0v49.4l-23-49.4z" fill="#a3ff12" fill-opacity=".3"/></g><g filter="url(#b)"><path d="m0 0v290h470v-219.3l-33-70.7z" fill="#1e1f35" fill-opacity=".8"/></g><g clip-path="url(#d)"><path d="m7.4 286-1.9 4h-5.5l1.9-4zm3.5 0-1.9 4h5.5l1.9-4zm9 0-1.9 4h5.5l1.9-4zm9 0-1.9 4h5.5l1.9-4zm9 0-1.9 4h5.5l1.9-4zm9 0-1.9 4h5.5l1.9-4zm9 0-1.9 4h5.5l1.9-4zm9 0-1.9 4h5.5l1.9-4zm9 0-1.9 4h5.5l1.9-4zm9 0-1.9 4h5.5l1.9-4zm9 0-1.9 4h5.5l1.9-4zm9 0-1.9 4h5.5l1.9-4zm9 0-1.9 4h5.5l1.9-4zm9 0-1.9 4h5.5l1.9-4zm9 0-1.9 4h5.5l1.9-4zm9 0-1.9 4h5.5l1.9-4zm9 0-1.9 4h5.5l1.9-4zm9 0-1.9 4h5.5l1.9-4zm9 0-1.9 4h5.5l1.9-4zm9 0-1.9 4h5.5l1.9-4zm9 0-1.9 4h5.5l1.9-4zm9 0-1.9 4h5.5l1.9-4zm9 0-1.9 4h5.5l1.9-4zm9 0-1.9 4h5.5l1.9-4zm9 0-1.9 4h5.5l1.9-4zm9 0-1.9 4h5.5l1.9-4zm9 0-1.9 4h5.5l1.9-4zm9 0-1.9 4h5.5l1.9-4zm9 0-1.9 4h5.5l1.9-4zm9 0-1.9 4h5.5l1.9-4zm9 0-1.9 4h5.5l1.9-4zm9 0-1.9 4h5.5l1.9-4zm9 0-1.9 4h5.5l1.9-4zm9 0-1.9 4h5.5l1.9-4zm9 0-1.9 4h5.5l1.9-4zm9 0-1.9 4h5.5l1.9-4zm9 0-1.9 4h5.5l1.9-4zm9 0-1.9 4h5.5l1.9-4zm9 0-1.9 4h5.5l1.9-4zm9 0-1.9 4h5.5l1.9-4zm9 0-1.9 4h5.5l1.9-4zm9 0-1.9 4h5.5l1.9-4zm9 0-1.9 4h5.5l1.9-4zm9 0-1.9 4h5.5l1.9-4zm9 0-1.9 4h5.5l1.9-4zm9 0-1.9 4h5.5l1.9-4zm9 0-1.9 4h5.5l1.9-4z" fill="url(#c)" fill-opacity=".1"/></g></svg>