<svg fill="none" height="20" viewBox="0 0 24 20" width="24" xmlns="http://www.w3.org/2000/svg" xmlns:xlink="http://www.w3.org/1999/xlink"><clipPath id="a"><path d="m0 0h24v20h-24z"/></clipPath><g clip-path="url(#a)"><path d="m16 15c-.3 0-.5-.1-.7-.3l-3.3-3.3-3.3 3.3c-.4.4-1 .4-1.4 0s-.4-1 0-1.4l4-4c.4-.4 1-.4 1.4 0l4 4c.4.4.4 1 0 1.4-.2.2-.4.3-.7.3z" fill="#a3ff12"/><path d="m12 20c-.6 0-1-.4-1-1v-9c0-.6.4-1 1-1s1 .4 1 1v9c0 .6-.4 1-1 1z" fill="#a3ff12"/><path d="m20.3987 17.4c-.4 0-.7-.2-.9-.5-.3-.5-.1-1.1.4-1.4.9-.5 1.6-1.4 1.9-2.4s.2-2.1-.3-3c-.7-1.3-2-2.1-3.5-2.1h-1.3c-.5 0-.9-.3-1-.7-1-3.7-4.8-6-8.49996-5-1.8.4-3.3 1.5-4.2 3.1-1 1.7-1.2 3.5-.8 5.4.3 1.1.8 2.1 1.5 2.9.4.4.3 1-.1 1.4s-1 .3-1.4-.1c-.9-1.1-1.600001-2.3-2.000001-3.7-.6-2.3-.3-4.7 1.000001-6.8 1.3-2.1 3.2-3.5 5.5-4.099996 4.59996-1.3 9.29996 1.199996 10.79996 5.599996h.5c2.2 0 4.2 1.2 5.3 3.1.8 1.4.9 3 .5 4.6-.5 1.5-1.5 2.8-2.9 3.6-.2 0-.3.1-.5.1z" fill="#fff"/><path d="m16 15c-.3 0-.5-.1-.7-.3l-3.3-3.3-3.3 3.3c-.4.4-1 .4-1.4 0s-.4-1 0-1.4l4-4c.4-.4 1-.4 1.4 0l4 4c.4.4.4 1 0 1.4-.2.2-.4.3-.7.3z" fill="#a3ff12"/></g></svg>