<svg fill="none" height="6" viewBox="0 0 1170 6" width="1170" xmlns="http://www.w3.org/2000/svg"><path d="m11.0792 0-2.79478 6h-8.28442l2.79474-6zm5.29 0-2.7947 6h8.2844l2.7947-6zm13.4747 0-2.7948 6h8.2845l2.7947-6zm13.4747 0-2.7948 6h8.2844l2.7948-6zm13.4746 0-2.7947 6h8.2844l2.7947-6zm13.4747 0-2.7948 6h8.2845l2.7947-6zm13.4746 0-2.7947 6h8.2844l2.7948-6zm13.4747 0-2.7947 6h8.2845l2.795-6zm13.4748 0-2.795 6h8.285l2.794-6zm13.475 0-2.795 6h8.284l2.795-6zm13.474 0-2.795 6h8.285l2.795-6zm13.475 0-2.795 6h8.285l2.794-6zm13.475 0-2.795 6h8.284l2.795-6zm13.474 0-2.795 6h8.285l2.795-6zm13.475 0-2.795 6h8.285l2.794-6zm13.475 0-2.795 6h8.284l2.795-6zm13.474 0-2.795 6h8.285l2.795-6zm13.475 0-2.795 6h8.285l2.794-6zm13.474 0-2.794 6h8.284l2.795-6zm13.475 0-2.795 6h8.285l2.795-6zm13.475 0-2.795 6h8.285l2.794-6zm13.474 0-2.794 6h8.284l2.795-6zm13.475 0-2.795 6h8.285l2.795-6zm13.475 0-2.795 6h8.284l2.795-6zm13.474 0-2.794 6h8.284l2.795-6zm13.475 0-2.795 6h8.285l2.795-6zm13.475 0-2.795 6h8.284l2.795-6zm13.474 0-2.794 6h8.284l2.795-6zm13.475 0-2.795 6h8.285l2.795-6zm13.475 0-2.795 6h8.284l2.795-6zm13.474 0-2.794 6h8.284l2.795-6zm13.475 0-2.795 6h8.285l2.795-6zm13.475 0-2.795 6h8.284l2.795-6zm13.474 0-2.794 6h8.284l2.795-6zm13.475 0-2.795 6h8.285l2.795-6zm13.475 0-2.795 6h8.284l2.795-6zm13.474 0-2.794 6h8.284l2.795-6zm13.475 0-2.795 6h8.285l2.795-6zm13.475 0-2.795 6h8.284l2.795-6zm13.474 0-2.794 6h8.284l2.795-6zm13.475 0-2.795 6h8.285l2.795-6zm13.475 0-2.795 6h8.284l2.795-6zm13.474 0-2.794 6h8.284l2.795-6zm13.475 0-2.795 6h8.285l2.795-6zm13.475 0-2.795 6h8.284l2.795-6zm13.474 0-2.794 6h8.284l2.795-6zm13.475 0-2.795 6h8.285l2.794-6zm13.475 0-2.795 6h8.284l2.795-6zm13.474 0-2.794 6h8.284l2.795-6zm13.475 0-2.795 6h8.285l2.795-6zm13.475 0-2.795 6h8.284l2.795-6zm13.474 0-2.794 6h8.284l2.795-6zm13.475 0-2.795 6h8.285l2.795-6zm13.475 0-2.795 6h8.284l2.795-6zm13.474 0-2.794 6h8.284l2.795-6zm13.475 0-2.795 6h8.285l2.794-6zm13.475 0-2.795 6h8.284l2.795-6zm13.474 0-2.794 6h8.284l2.795-6zm13.475 0-2.795 6h8.285l2.794-6zm13.475 0-2.795 6h8.284l2.795-6zm13.474 0-2.794 6h8.284l2.795-6zm13.475 0-2.795 6h8.285l2.794-6zm13.475 0-2.795 6h8.284l2.795-6zm13.474 0-2.794 6h8.284l2.795-6zm13.475 0-2.795 6h8.285l2.794-6zm13.475 0-2.795 6h8.284l2.795-6zm13.474 0-2.794 6h8.284l2.795-6zm13.475 0-2.795 6h8.285l2.794-6zm13.475 0-2.795 6h8.284l2.795-6zm13.474 0-2.794 6h8.284l2.795-6zm13.475 0-2.795 6h8.285l2.794-6zm13.475 0-2.795 6h8.284l2.795-6zm13.474 0-2.794 6h8.284l2.795-6zm13.475 0-2.795 6h8.285l2.794-6zm13.475 0-2.795 6h8.285l2.79-6zm13.47 0-2.79 6h8.28l2.8-6zm13.48 0-2.8 6h8.29l2.79-6zm13.47 0-2.79 6h8.28l2.8-6zm13.48 0-2.8 6h8.29l2.79-6zm13.47 0-2.79 6h8.28l2.8-6zm13.48 0-2.8 6h8.29l2.79-6zm13.47 0-2.79 6h8.28l2.8-6zm13.48 0-2.8 6h8.29l2.79-6zm13.47 0-2.79 6h8.28l2.8-6zm13.48 0-2.8 6h8.29l2.79-6zm13.47 0-2.79 6h8.28l2.8-6zm13.48 0-2.8 6h8.29l2.79-6z" fill="#fff" fill-opacity=".15"/></svg>